<?xml version="1.0" encoding="UTF-8"?>
<svg id="Layer_1" data-name="Layer 1" xmlns="http://www.w3.org/2000/svg" viewBox="0 0 544.22 544.22">
  <defs>
    <style>
      .cls-1 {
        fill: #d3e9f4;
      }

      .cls-2 {
        fill: #1f264f;
      }

      .cls-3 {
        fill: #2790c3;
      }

      .cls-4 {
        fill: #27346a;
      }
    </style>
  </defs>
  <path class="cls-1" d="m272.11,0C2.1,0,0,121.83,0,272.11s2.1,272.11,272.11,272.11,272.11-121.83,272.11-272.11S542.12,0,272.11,0Z"/>
  <g>
    <path class="cls-4" d="m365.77,144.91c-13.87-15.81-38.95-22.59-71.03-22.59h-93.1c-6.56,0-12.14,4.77-13.17,11.25l-38.77,245.86c-.77,4.85,2.98,9.24,7.9,9.24h57.48l14.44-91.56-.45,2.87c1.03-6.47,6.56-11.25,13.12-11.25h27.31c53.66,0,95.67-21.79,107.94-84.84.36-1.86.68-3.68.95-5.45q-1.55-.82,0,0c3.65-23.3-.02-39.16-12.63-53.52"/>
    <path class="cls-4" d="m251.51,190.04c1.53-.73,3.24-1.14,5.03-1.14h72.99c8.64,0,16.71.56,24.07,1.75,2.11.34,4.16.73,6.15,1.18,1.99.44,3.92.94,5.79,1.48.94.27,1.86.56,2.76.85,3.62,1.21,6.99,2.62,10.09,4.27,3.65-23.31-.02-39.16-12.63-53.52-13.88-15.81-38.95-22.59-71.03-22.59h-93.11c-6.55,0-12.13,4.77-13.16,11.25l-38.77,245.85c-.77,4.86,2.98,9.24,7.89,9.24h57.48l29.95-189.91c.61-3.89,3.12-7.09,6.48-8.7Z"/>
    <path class="cls-3" d="m377.45,203.89c-12.27,63.04-54.29,84.84-107.94,84.84h-27.32c-6.55,0-12.09,4.77-13.11,11.25l-17.96,113.84c-.67,4.24,2.61,8.09,6.9,8.09h48.45c5.73,0,10.62-4.18,11.51-9.84l.47-2.47,9.13-57.87.59-3.2c.89-5.66,5.78-9.84,11.51-9.84h7.25c46.94,0,83.69-19.07,94.43-74.22,4.48-23.05,2.16-42.29-9.7-55.8-3.6-4.09-8.06-7.47-13.27-10.23-.28,1.78-.59,3.59-.95,5.45h0Z"/>
    <path class="cls-2" d="m365.55,193.31c-1.87-.55-3.8-1.04-5.79-1.48-1.99-.44-4.04-.83-6.15-1.17-7.38-1.19-15.43-1.76-24.08-1.76h-72.98c-1.8,0-3.51.41-5.03,1.14-3.37,1.62-5.87,4.8-6.48,8.7l-15.51,98.35-.45,2.87c1.02-6.47,6.55-11.25,13.11-11.25h27.32c53.66,0,95.67-21.79,107.94-84.84.36-1.86.67-3.67.95-5.45-3.11-1.64-6.47-3.06-10.09-4.26-.9-.3-1.82-.59-2.76-.86"/>
  </g>
</svg>